<svg width="33" height="33" viewBox="0 0 33 33" fill="none" xmlns="http://www.w3.org/2000/svg">
<path fill-rule="evenodd" clip-rule="evenodd" d="M2.69429 16.0005C2.69429 23.5091 8.13822 28.6249 14.2531 29.6831C14.4194 29.712 14.5785 29.7733 14.7211 29.8636C14.8637 29.9539 14.9872 30.0714 15.0844 30.2094C15.1817 30.3474 15.2508 30.5032 15.2878 30.6679C15.3248 30.8326 15.329 31.003 15.3002 31.1693C15.2714 31.3356 15.2101 31.4947 15.1198 31.6373C15.0295 31.78 14.912 31.9034 14.774 32.0007C14.636 32.0979 14.4802 32.167 14.3155 32.204C14.1507 32.241 13.9804 32.2452 13.814 32.2164C6.63356 30.9732 0.124023 24.92 0.124023 16.0005C0.124023 12.2093 1.84822 9.22954 3.86102 6.96514C5.30402 5.34208 6.95422 4.02241 8.28129 3.01354H4.24582C3.91872 3.01354 3.60502 2.8836 3.37372 2.65231C3.14243 2.42101 3.01249 2.10731 3.01249 1.78021C3.01249 1.45311 3.14243 1.13941 3.37372 0.90811C3.60502 0.676815 3.91872 0.546875 4.24582 0.546875H11.6458C11.9729 0.546875 12.2866 0.676815 12.5179 0.90811C12.7492 1.13941 12.8792 1.45311 12.8792 1.78021V9.18021C12.8792 9.50731 12.7492 9.82101 12.5179 10.0523C12.2866 10.2836 11.9729 10.4135 11.6458 10.4135C11.3187 10.4135 11.005 10.2836 10.7737 10.0523C10.5424 9.82101 10.4125 9.50731 10.4125 9.18021V4.62674L10.41 4.63168C8.99909 5.69234 7.27736 6.99228 5.78502 8.67208C4.02136 10.6553 2.69429 13.0529 2.69429 15.9981V16.0005ZM30.094 17.002C30.094 9.57241 24.766 4.48861 18.7301 3.35394C18.5619 3.3254 18.401 3.26364 18.2569 3.17226C18.1128 3.08089 17.9883 2.96173 17.8907 2.82175C17.7932 2.68176 17.7245 2.52374 17.6886 2.35691C17.6528 2.19009 17.6505 2.01779 17.6819 1.85008C17.7134 1.68237 17.7779 1.5226 17.8718 1.38009C17.9656 1.23758 18.0869 1.11519 18.2286 1.02006C18.3702 0.924924 18.5294 0.858952 18.6968 0.82599C18.8642 0.793028 19.0365 0.793737 19.2037 0.828075C26.2929 2.16008 32.6643 8.17874 32.6643 17.002C32.6643 20.7933 30.9401 23.7705 28.9273 26.0374C27.4843 27.6605 25.8341 28.9801 24.507 29.989H28.5425C28.8696 29.989 29.1833 30.1189 29.4146 30.3502C29.6459 30.5815 29.7758 30.8952 29.7758 31.2223C29.7758 31.5494 29.6459 31.8631 29.4146 32.0944C29.1833 32.3257 28.8696 32.4557 28.5425 32.4557H21.1425C20.8154 32.4557 20.5017 32.3257 20.2704 32.0944C20.0391 31.8631 19.9092 31.5494 19.9092 31.2223V23.8223C19.9092 23.4952 20.0391 23.1815 20.2704 22.9502C20.5017 22.7189 20.8154 22.589 21.1425 22.589C21.4696 22.589 21.7833 22.7189 22.0146 22.9502C22.2459 23.1815 22.3758 23.4952 22.3758 23.8223V28.3733H22.3808C23.7892 27.3077 25.5134 26.0103 27.0033 24.328C28.767 22.3473 30.094 19.9497 30.094 17.002Z" fill="black"/>
</svg>
