<svg width="24" height="24" viewBox="0 0 24 24" fill="none" xmlns="http://www.w3.org/2000/svg">
<g clip-path="url(#clip0_201_2)">
<path fill-rule="evenodd" clip-rule="evenodd" d="M22 12C22 17.523 17.523 22 12 22C6.477 22 2 17.523 2 12C2 6.477 6.477 2 12 2C17.523 2 22 6.477 22 12ZM15.9 7.70005L10 13.6L8.10005 11.7C7.91672 11.5167 7.68338 11.425 7.40005 11.425C7.11672 11.425 6.88338 11.5167 6.70005 11.7C6.51672 11.8834 6.42505 12.1167 6.42505 12.4C6.42505 12.6834 6.51672 12.9167 6.70005 13.1L9.30005 15.7C9.50005 15.9 9.73338 16 10 16C10.2667 16 10.5 15.9 10.7 15.7L17.3 9.10005C17.4834 8.91672 17.5751 8.68338 17.5751 8.40005C17.5751 8.11671 17.4834 7.88338 17.3 7.70005C17.1167 7.51672 16.8834 7.42505 16.6 7.42505C16.3167 7.42505 16.0834 7.51672 15.9 7.70005Z" fill="black"/>
</g>
<defs>
<clipPath id="clip0_201_2">
<rect width="24" height="24" fill="white"/>
</clipPath>
</defs>
</svg>
