<svg width="35" height="36" viewBox="0 0 35 36" fill="none" xmlns="http://www.w3.org/2000/svg">
<path d="M12.3363 22.4023L26.0942 8.6414C26.5217 8.2138 27.0658 8 27.7265 8C28.3871 8 28.9312 8.2138 29.3587 8.6414C29.7862 9.069 30 9.61322 30 10.2741C30 10.9349 29.7862 11.4791 29.3587 11.9067L13.9686 27.3003C13.5022 27.7668 12.9581 28 12.3363 28C11.7145 28 11.1704 27.7668 10.704 27.3003L4.64125 21.2362C4.21375 20.8086 4 20.2643 4 19.6035C4 18.9427 4.21375 18.3984 4.64125 17.9708C5.06876 17.5432 5.61285 17.3294 6.27354 17.3294C6.93423 17.3294 7.47833 17.5432 7.90583 17.9708L12.3363 22.4023Z" fill="white"/>
</svg>
