<svg width="24" height="24" viewBox="0 0 24 24" fill="none" xmlns="http://www.w3.org/2000/svg">
<path d="M9 22H15C20 22 22 20 22 15V9C22 4 20 2 15 2H9C4 2 2 4 2 9V15C2 20 4 22 9 22Z" stroke="white" stroke-width="1.5" stroke-linecap="round" stroke-linejoin="round"/>
<path d="M2.66992 18.95L7.59992 15.64C8.38992 15.11 9.52992 15.17 10.2399 15.78L10.5699 16.07C11.3499 16.74 12.6099 16.74 13.3899 16.07L17.5499 12.5C18.3299 11.83 19.5899 11.83 20.3699 12.5L21.9999 13.9M8.99992 10C9.53035 10 10.0391 9.78929 10.4141 9.41421C10.7892 9.03914 10.9999 8.53043 10.9999 8C10.9999 7.46957 10.7892 6.96086 10.4141 6.58579C10.0391 6.21071 9.53035 6 8.99992 6C8.46949 6 7.96078 6.21071 7.58571 6.58579C7.21064 6.96086 6.99992 7.46957 6.99992 8C6.99992 8.53043 7.21064 9.03914 7.58571 9.41421C7.96078 9.78929 8.46949 10 8.99992 10Z" stroke="white" stroke-width="1.5" stroke-linecap="round" stroke-linejoin="round"/>
</svg>
