<svg width="24" height="24" viewBox="0 0 24 24" fill="none" xmlns="http://www.w3.org/2000/svg">
<path d="M12 15.5C14.21 15.5 16 13.71 16 11.5V6C16 3.79 14.21 2 12 2C9.79 2 8 3.79 8 6V11.5C8 13.71 9.79 15.5 12 15.5Z" stroke="white" stroke-width="1.5" stroke-linecap="round" stroke-linejoin="round"/>
<path d="M4.3501 9.64999V11.35C4.3501 15.57 7.7801 19 12.0001 19C16.2201 19 19.6501 15.57 19.6501 11.35V9.64999M10.6101 6.43C11.5101 6.1 12.4901 6.1 13.3901 6.43M11.2001 8.55C11.7301 8.41 12.2801 8.41 12.8101 8.55M12.0001 19V22" stroke="white" stroke-width="1.5" stroke-linecap="round" stroke-linejoin="round"/>
</svg>
