<svg width="36" height="35" viewBox="0 0 36 35" fill="none" xmlns="http://www.w3.org/2000/svg">
<path d="M18 0C8.3575 0 0.5 7.8575 0.5 17.5C0.5 27.1425 8.3575 35 18 35C27.6425 35 35.5 27.1425 35.5 17.5C35.5 7.8575 27.6425 0 18 0ZM25 18.8125H19.3125V24.5C19.3125 25.2175 18.7175 25.8125 18 25.8125C17.2825 25.8125 16.6875 25.2175 16.6875 24.5V18.8125H11C10.2825 18.8125 9.6875 18.2175 9.6875 17.5C9.6875 16.7825 10.2825 16.1875 11 16.1875H16.6875V10.5C16.6875 9.7825 17.2825 9.1875 18 9.1875C18.7175 9.1875 19.3125 9.7825 19.3125 10.5V16.1875H25C25.7175 16.1875 26.3125 16.7825 26.3125 17.5C26.3125 18.2175 25.7175 18.8125 25 18.8125Z" fill="#1D1D1D"/>
</svg>
