<svg width="24" height="24" viewBox="0 0 24 24" fill="none" xmlns="http://www.w3.org/2000/svg">
<path d="M22.2857 13.7143H13.7143V22.2857C13.7143 22.7404 13.5337 23.1764 13.2122 23.4979C12.8907 23.8194 12.4547 24 12 24C11.5453 24 11.1093 23.8194 10.7878 23.4979C10.4663 23.1764 10.2857 22.7404 10.2857 22.2857V13.7143H1.71429C1.25963 13.7143 0.823594 13.5337 0.502103 13.2122C0.180612 12.8907 0 12.4547 0 12C0 11.5453 0.180612 11.1093 0.502103 10.7878C0.823594 10.4663 1.25963 10.2857 1.71429 10.2857H10.2857V1.71429C10.2857 1.25963 10.4663 0.823593 10.7878 0.502102C11.1093 0.180611 11.5453 0 12 0C12.4547 0 12.8907 0.180611 13.2122 0.502102C13.5337 0.823593 13.7143 1.25963 13.7143 1.71429V10.2857H22.2857C22.7404 10.2857 23.1764 10.4663 23.4979 10.7878C23.8194 11.1093 24 11.5453 24 12C24 12.4547 23.8194 12.8907 23.4979 13.2122C23.1764 13.5337 22.7404 13.7143 22.2857 13.7143Z" fill="white"/>
</svg>
