<svg width="36" height="35" viewBox="0 0 36 35" fill="none" xmlns="http://www.w3.org/2000/svg">
<path d="M30.3744 5.12565C23.5561 -1.69263 12.4439 -1.69263 5.62563 5.12565C-1.19265 11.9439 -1.19265 23.0561 5.62563 29.8744C12.4439 36.6927 23.5561 36.6927 30.3744 29.8744C37.1926 23.0561 37.1926 11.9439 30.3744 5.12565ZM22.0217 23.3778L18 19.3562L13.9783 23.3778C13.471 23.8852 12.6295 23.8852 12.1222 23.3778C11.6148 22.8705 11.6148 22.029 12.1222 21.5217L16.1438 17.5L12.1222 13.4783C11.6148 12.971 11.6148 12.1295 12.1222 11.6222C12.6295 11.1148 13.471 11.1148 13.9783 11.6222L18 15.6439L22.0217 11.6222C22.529 11.1148 23.3705 11.1148 23.8778 11.6222C24.3852 12.1295 24.3852 12.971 23.8778 13.4783L19.8562 17.5L23.8778 21.5217C24.3852 22.029 24.3852 22.8705 23.8778 23.3778C23.3705 23.8852 22.529 23.8852 22.0217 23.3778Z" fill="#1D1D1D"/>
</svg>
