<svg width="24" height="24" viewBox="0 0 24 24" fill="none" xmlns="http://www.w3.org/2000/svg">
<path d="M19.2842 18.2156C19.425 18.3578 19.504 18.5498 19.504 18.75C19.504 18.9501 19.425 19.1422 19.2842 19.2843C19.1408 19.423 18.9492 19.5004 18.7498 19.5004C18.5504 19.5004 18.3588 19.423 18.2154 19.2843L11.9998 13.0593L5.7842 19.2843C5.64084 19.423 5.44924 19.5004 5.24982 19.5004C5.05041 19.5004 4.8588 19.423 4.71545 19.2843C4.57461 19.1422 4.49561 18.9501 4.49561 18.75C4.49561 18.5498 4.57461 18.3578 4.71545 18.2156L10.9404 12L4.71545 5.78435C4.59585 5.63862 4.53473 5.45363 4.54398 5.26534C4.55323 5.07705 4.63218 4.89893 4.76548 4.76563C4.89878 4.63233 5.0769 4.55338 5.26519 4.54413C5.45348 4.53488 5.63848 4.596 5.7842 4.7156L11.9998 10.9406L18.2154 4.7156C18.3612 4.596 18.5462 4.53488 18.7345 4.54413C18.9227 4.55338 19.1009 4.63233 19.2342 4.76563C19.3675 4.89893 19.4464 5.07705 19.4557 5.26534C19.4649 5.45363 19.4038 5.63862 19.2842 5.78435L13.0592 12L19.2842 18.2156Z" fill="white"/>
</svg>
