<svg width="14" height="14" viewBox="0 0 14 14" fill="none" xmlns="http://www.w3.org/2000/svg">
<path d="M6.15647 3.64189L4.18306 1.36397C3.95556 1.10147 3.53847 1.10264 3.27422 1.36747L1.65139 2.99322C1.16839 3.47681 1.03014 4.19489 1.30956 4.77064C2.97883 8.22687 5.76625 11.0182 9.22014 12.6923C9.79531 12.9717 10.5128 12.8335 10.9958 12.3499L12.6338 10.709C12.8992 10.4436 12.8998 10.0241 12.635 9.79664L10.3483 7.83372C10.1091 7.62839 9.73756 7.65522 9.49781 7.89556L8.70214 8.69239C8.66141 8.73508 8.60778 8.76322 8.54951 8.7725C8.49124 8.78177 8.43153 8.77166 8.37956 8.74372C7.07898 7.99478 6.00013 6.91452 5.25289 5.61297C5.2249 5.56091 5.21477 5.50111 5.22404 5.44273C5.23332 5.38436 5.26148 5.33063 5.30422 5.28981L6.09756 4.49589C6.33789 4.25439 6.36414 3.88106 6.15647 3.64131V3.64189Z" stroke="#BDBDBD" stroke-linecap="round" stroke-linejoin="round"/>
</svg>
