<svg width="15" height="13" viewBox="0 0 15 13" fill="none" xmlns="http://www.w3.org/2000/svg">
<path d="M11.3762 6.34375H10.4465V3.28125C10.4465 2.31465 9.66313 1.53125 8.69653 1.53125H5.30591C4.33931 1.53125 3.55591 2.31465 3.55591 3.28125V6.34375H2.62622C2.38423 6.34375 2.18872 6.53926 2.18872 6.78125V12.0312C2.18872 12.2732 2.38423 12.4688 2.62622 12.4688H11.3762C11.6182 12.4688 11.8137 12.2732 11.8137 12.0312V6.78125C11.8137 6.53926 11.6182 6.34375 11.3762 6.34375ZM4.54028 3.28125C4.54028 2.85879 4.88345 2.51562 5.30591 2.51562H8.69653C9.11899 2.51562 9.46216 2.85879 9.46216 3.28125V6.34375H4.54028V3.28125ZM10.8293 11.4844H3.1731V7.32812H10.8293V11.4844ZM6.61841 9.58398V10.3086C6.61841 10.3688 6.66763 10.418 6.72778 10.418H7.27466C7.33481 10.418 7.38403 10.3688 7.38403 10.3086V9.58398C7.49689 9.50296 7.58113 9.38821 7.62462 9.25626C7.66811 9.12431 7.66861 8.98197 7.62605 8.84972C7.58349 8.71746 7.50007 8.60213 7.38778 8.52031C7.2755 8.43848 7.14015 8.3944 7.00122 8.3944C6.86229 8.3944 6.72694 8.43848 6.61466 8.52031C6.50237 8.60213 6.41895 8.71746 6.37639 8.84972C6.33383 8.98197 6.33433 9.12431 6.37782 9.25626C6.42131 9.38821 6.50555 9.50296 6.61841 9.58398V9.58398Z" fill="#BDBDBD"/>
</svg>
