<svg width="25" height="25" viewBox="0 0 25 25" fill="none" xmlns="http://www.w3.org/2000/svg">
<g clip-path="url(#clip0_511_121)">
<path d="M17.4719 0.012511C17.4188 -0.046864 15.5047 0.0359485 13.8391 1.84376C12.1734 3.65001 12.4297 5.72189 12.4672 5.77501C12.5047 5.82814 14.8422 5.91095 16.3344 3.80939C17.8266 1.70782 17.525 0.0734485 17.4719 0.012511V0.012511ZM22.65 18.3453C22.575 18.1953 19.0172 16.4172 19.3484 12.9984C19.6797 9.57814 21.9656 8.64064 22.0016 8.53907C22.0375 8.43751 21.0688 7.3047 20.0422 6.73126C19.2885 6.32697 18.4543 6.09534 17.6 6.05314C17.4313 6.04845 16.8453 5.9047 15.6406 6.23439C14.8469 6.45157 13.0578 7.1547 12.5656 7.18282C12.0719 7.21095 10.6031 6.3672 9.02344 6.14376C8.01251 5.94845 6.94063 6.34845 6.17344 6.65626C5.40782 6.96251 3.95157 7.83439 2.93282 10.1516C1.91407 12.4672 2.44688 16.1359 2.82813 17.2766C3.20938 18.4156 3.80469 20.2828 4.81719 21.6453C5.71719 23.1828 6.91094 24.25 7.40938 24.6125C7.90782 24.975 9.31407 25.2156 10.2891 24.7172C11.0734 24.2359 12.4891 23.9594 13.0484 23.9797C13.6063 24 14.7063 24.2203 15.8328 24.8219C16.725 25.1297 17.5688 25.0016 18.4141 24.6578C19.2594 24.3125 20.4828 23.0031 21.9109 20.3484C22.4531 19.1141 22.7 18.4469 22.65 18.3453V18.3453Z" fill="black"/>
<path d="M17.4719 0.012511C17.4188 -0.046864 15.5047 0.0359485 13.8391 1.84376C12.1734 3.65001 12.4297 5.72189 12.4672 5.77501C12.5047 5.82814 14.8422 5.91095 16.3344 3.80939C17.8266 1.70782 17.525 0.0734485 17.4719 0.012511V0.012511ZM22.65 18.3453C22.575 18.1953 19.0172 16.4172 19.3484 12.9984C19.6797 9.57814 21.9656 8.64064 22.0016 8.53907C22.0375 8.43751 21.0688 7.3047 20.0422 6.73126C19.2885 6.32697 18.4543 6.09534 17.6 6.05314C17.4313 6.04845 16.8453 5.9047 15.6406 6.23439C14.8469 6.45157 13.0578 7.1547 12.5656 7.18282C12.0719 7.21095 10.6031 6.3672 9.02344 6.14376C8.01251 5.94845 6.94063 6.34845 6.17344 6.65626C5.40782 6.96251 3.95157 7.83439 2.93282 10.1516C1.91407 12.4672 2.44688 16.1359 2.82813 17.2766C3.20938 18.4156 3.80469 20.2828 4.81719 21.6453C5.71719 23.1828 6.91094 24.25 7.40938 24.6125C7.90782 24.975 9.31407 25.2156 10.2891 24.7172C11.0734 24.2359 12.4891 23.9594 13.0484 23.9797C13.6063 24 14.7063 24.2203 15.8328 24.8219C16.725 25.1297 17.5688 25.0016 18.4141 24.6578C19.2594 24.3125 20.4828 23.0031 21.9109 20.3484C22.4531 19.1141 22.7 18.4469 22.65 18.3453V18.3453Z" fill="black"/>
</g>
<defs>
<clipPath id="clip0_511_121">
<rect width="25" height="25" fill="white"/>
</clipPath>
</defs>
</svg>
