<svg width="13" height="12" viewBox="0 0 13 12" fill="none" xmlns="http://www.w3.org/2000/svg">
<g clip-path="url(#clip0_510_81)">
<path d="M5.79412 2.63147C6.71024 2.63147 7.57349 3.0376 8.20612 3.67247V3.67435C8.20612 3.36947 8.41124 3.13885 8.69474 3.13885H8.76674C9.21412 3.13885 9.30374 3.56072 9.30374 3.69385L9.30562 8.43197C9.27449 8.74247 9.62624 8.90297 9.82162 8.70347C10.581 7.92235 11.4911 4.68385 9.34874 2.80885C7.35074 1.05872 4.66912 1.34785 3.24337 2.33035C1.72799 3.37735 0.759366 5.68997 1.70024 7.86347C2.72774 10.2331 5.66512 10.94 7.41337 10.235C8.29837 9.8776 8.70637 11.0723 7.78649 11.4635C6.40012 12.0548 2.53649 11.9945 0.731991 8.8696C-0.487134 6.75872 -0.422634 3.04547 2.81212 1.12172C5.28449 -0.350901 8.54662 0.0570988 10.5131 2.11022C12.5681 4.2586 12.4492 8.27822 10.443 9.84085C9.53437 10.5515 8.18512 9.86035 8.19487 8.82497L8.18474 8.48747C7.55212 9.1141 6.71024 9.4816 5.79412 9.4816C3.98174 9.4816 2.38612 7.8856 2.38612 6.0751C2.38612 4.2451 3.98174 2.63222 5.79412 2.63222V2.63147ZM8.07374 5.94422C8.00512 4.61785 7.02074 3.8191 5.83124 3.8191H5.78624C4.41524 3.8191 3.65362 4.8991 3.65362 6.12347C3.65362 7.49635 4.57349 8.36335 5.78062 8.36335C7.12799 8.36335 8.01262 7.37747 8.07712 6.21122L8.07374 5.94422Z" fill="#BDBDBD"/>
</g>
<defs>
<clipPath id="clip0_510_81">
<rect width="12" height="12" fill="white" transform="translate(0.0012207)"/>
</clipPath>
</defs>
</svg>
