<svg width="29" height="29" viewBox="0 0 29 29" fill="none" xmlns="http://www.w3.org/2000/svg">
<path d="M26.3483 12.1348H25.375V12.0846H14.5V16.918H21.3289C20.3326 19.7316 17.6555 21.7513 14.5 21.7513C10.4961 21.7513 7.24996 18.5051 7.24996 14.5013C7.24996 10.4975 10.4961 7.2513 14.5 7.2513C16.3481 7.2513 18.0295 7.94851 19.3097 9.08736L22.7275 5.66959C20.5694 3.65832 17.6827 2.41797 14.5 2.41797C7.82694 2.41797 2.41663 7.82828 2.41663 14.5013C2.41663 21.1743 7.82694 26.5846 14.5 26.5846C21.173 26.5846 26.5833 21.1743 26.5833 14.5013C26.5833 13.6911 26.4999 12.9003 26.3483 12.1348Z" fill="#FFC107"/>
<path d="M3.80981 8.87711L7.77979 11.7886C8.854 9.12905 11.4555 7.2513 14.4999 7.2513C16.3481 7.2513 18.0295 7.94851 19.3097 9.08736L22.7275 5.66959C20.5694 3.65832 17.6827 2.41797 14.4999 2.41797C9.85873 2.41797 5.83377 5.03824 3.80981 8.87711Z" fill="#FF3D00"/>
<path d="M14.5 26.5833C17.6211 26.5833 20.4571 25.3888 22.6013 23.4464L18.8615 20.2818C17.6075 21.2354 16.0753 21.7512 14.5 21.7499C11.3571 21.7499 8.68851 19.7459 7.68317 16.9492L3.7428 19.9852C5.74259 23.8983 9.8038 26.5833 14.5 26.5833Z" fill="#4CAF50"/>
<path d="M26.3483 12.1322H25.375V12.082H14.5V16.9154H21.3289C20.8523 18.2544 19.9939 19.4246 18.8597 20.2812L18.8615 20.28L22.6013 23.4446C22.3366 23.6851 26.5833 20.5404 26.5833 14.4987C26.5833 13.6885 26.5 12.8977 26.3483 12.1322Z" fill="#1976D2"/>
</svg>
