<svg width="25" height="25" viewBox="0 0 25 25" fill="none" xmlns="http://www.w3.org/2000/svg">
<path d="M12.5 0C5.59648 0 0 5.59658 0 12.5C0 19.4039 5.59658 25 12.5 25C19.404 25 25 19.4039 25 12.5C25 5.59707 19.404 0.000683594 12.4998 0.000683594L12.4999 9.76563e-05L12.5 0ZM18.2323 18.0287C18.0084 18.3959 17.5277 18.5123 17.1605 18.2869C14.2257 16.4942 10.5312 16.0882 6.18008 17.0823C5.97859 17.1282 5.76715 17.0921 5.59222 16.9821C5.4173 16.8721 5.29322 16.6972 5.24727 16.4957C5.22437 16.396 5.22136 16.2927 5.23843 16.1918C5.25549 16.0909 5.29229 15.9944 5.34672 15.9077C5.40115 15.8211 5.47213 15.746 5.55561 15.6868C5.63909 15.6276 5.73342 15.5855 5.8332 15.5628C10.5949 14.4749 14.6792 14.9433 17.9741 16.9569C18.3413 17.1823 18.4577 17.6615 18.2323 18.0287ZM19.7623 14.6251C19.4801 15.0836 18.8801 15.2284 18.4219 14.9463C15.0619 12.8811 9.94014 12.2829 5.96602 13.4893C5.45059 13.6449 4.90625 13.3545 4.7498 12.8399C4.59453 12.3245 4.88516 11.7812 5.39971 11.6245C9.93926 10.247 15.5828 10.9143 19.4414 13.2854C19.8996 13.5676 20.0444 14.1676 19.7623 14.6252V14.6251ZM19.8937 11.0809C15.8649 8.68789 9.21816 8.46777 5.37178 9.63535C4.7541 9.82266 4.10088 9.47393 3.91377 8.85625C3.72656 8.23828 4.0749 7.58555 4.69307 7.39775C9.1084 6.05732 16.4486 6.31641 21.0868 9.06992C21.6437 9.39961 21.8257 10.1172 21.4958 10.672C21.1675 11.2276 20.4479 11.4107 19.8942 11.0809H19.8937V11.0809Z" fill="#1ED760"/>
</svg>
