<svg width="27" height="27" viewBox="0 0 27 27" fill="none" xmlns="http://www.w3.org/2000/svg">
<path d="M1.11207 11.1185C0.817132 11.1185 0.534272 11.0013 0.325719 10.7928C0.117165 10.5842 0 10.3014 0 10.0064V1.11207C0 0.817132 0.117165 0.534272 0.325719 0.325718C0.534272 0.117165 0.817132 0 1.11207 0H10.0086C10.3036 0 10.5864 0.117165 10.795 0.325718C11.0036 0.534272 11.1207 0.817132 11.1207 1.11207V10.0064C11.1207 10.3014 11.0036 10.5842 10.795 10.7928C10.5864 11.0013 10.3036 11.1185 10.0086 11.1185H1.11207ZM16.6811 11.1185C16.3861 11.1185 16.1033 11.0013 15.8947 10.7928C15.6862 10.5842 15.569 10.3014 15.569 10.0064V1.11207C15.569 0.817132 15.6862 0.534272 15.8947 0.325718C16.1033 0.117165 16.3861 0 16.6811 0H25.5754C25.8704 0 26.1532 0.117165 26.3618 0.325718C26.5703 0.534272 26.6875 0.817132 26.6875 1.11207V10.0064C26.6875 10.3014 26.5703 10.5842 26.3618 10.7928C26.1532 11.0013 25.8704 11.1185 25.5754 11.1185H16.6811ZM1.11207 26.6875C0.817132 26.6875 0.534272 26.5703 0.325719 26.3618C0.117165 26.1532 0 25.8704 0 25.5754V16.6789C0 16.3839 0.117165 16.1011 0.325719 15.8925C0.534272 15.6839 0.817132 15.5668 1.11207 15.5668H10.0086C10.3036 15.5668 10.5864 15.6839 10.795 15.8925C11.0036 16.1011 11.1207 16.3839 11.1207 16.6789V25.5754C11.1207 25.8704 11.0036 26.1532 10.795 26.3618C10.5864 26.5703 10.3036 26.6875 10.0086 26.6875H1.11207ZM16.6811 26.6875C16.3861 26.6875 16.1033 26.5703 15.8947 26.3618C15.6862 26.1532 15.569 25.8704 15.569 25.5754V16.6789C15.569 16.3839 15.6862 16.1011 15.8947 15.8925C16.1033 15.6839 16.3861 15.5668 16.6811 15.5668H25.5754C25.8704 15.5668 26.1532 15.6839 26.3618 15.8925C26.5703 16.1011 26.6875 16.3839 26.6875 16.6789V25.5754C26.6875 25.8704 26.5703 26.1532 26.3618 26.3618C26.1532 26.5703 25.8704 26.6875 25.5754 26.6875H16.6811Z" fill="black"/>
</svg>
