<svg width="13" height="18" viewBox="0 0 13 18" fill="none" xmlns="http://www.w3.org/2000/svg">
<g clip-path="url(#clip0_617_43)">
<path d="M12.2214 10.4414C12.7055 10.132 13 9.58708 13 8.99997C13 8.41286 12.7055 7.86794 12.2214 7.59021L2.47237 1.40271C1.97065 1.05466 1.34266 1.0406 0.830104 1.33943C0.578191 1.48623 0.368494 1.70009 0.222595 1.95899C0.0766946 2.21789 -0.000139065 2.51249 1.88952e-07 2.81247V15.1875C4.13608e-05 15.4873 0.0769605 15.7817 0.222851 16.0404C0.368742 16.2991 0.578341 16.5127 0.830104 16.6595C1.08192 16.806 1.36679 16.8803 1.65541 16.8747C1.94404 16.8691 2.22602 16.7837 2.47237 16.6275L12.2214 10.4414Z" fill="black"/>
</g>
<defs>
<clipPath id="clip0_617_43">
<rect width="13" height="18" fill="white" transform="matrix(1 0 0 -1 0 18)"/>
</clipPath>
</defs>
</svg>
