<svg width="131" height="131" viewBox="0 0 131 131" fill="none" xmlns="http://www.w3.org/2000/svg">
<path fill-rule="evenodd" clip-rule="evenodd" d="M93.8293 84.4849L129.067 119.723C130.305 120.963 131.001 122.643 131 124.396C130.999 126.148 130.303 127.828 129.063 129.067C127.824 130.305 126.143 131.001 124.391 131C122.639 130.999 120.959 130.303 119.72 129.063L84.4828 93.825C73.949 101.984 60.7027 105.824 47.4386 104.563C34.1745 103.302 21.8889 97.0347 13.0812 87.0368C4.27352 77.039 -0.394718 64.0613 0.0261747 50.7437C0.447067 37.426 5.92548 24.769 15.3469 15.3473C24.7684 5.92562 37.4251 0.447078 50.7424 0.0261754C64.0597 -0.394728 77.0371 4.27363 87.0347 13.0816C97.0322 21.8895 103.299 34.1753 104.56 47.4398C105.821 60.7042 101.982 73.9509 93.8227 84.4849H93.8293ZM52.4024 91.6963C62.825 91.6963 72.8206 87.5559 80.1904 80.1859C87.5603 72.8159 91.7006 62.82 91.7006 52.3972C91.7006 41.9744 87.5603 31.9785 80.1904 24.6085C72.8206 17.2385 62.825 13.098 52.4024 13.098C41.9799 13.098 31.9843 17.2385 24.6144 24.6085C17.2446 31.9785 13.1043 41.9744 13.1043 52.3972C13.1043 62.82 17.2446 72.8159 24.6144 80.1859C31.9843 87.5559 41.9799 91.6963 52.4024 91.6963V91.6963Z" fill="#1D1D1F"/>
</svg>
